<svg width="17" height="20" viewBox="0 0 17 20" fill="none" xmlns="http://www.w3.org/2000/svg">
<path fill-rule="evenodd" clip-rule="evenodd" d="M10.8626 7.02838L15.0876 2.8042L16.296 4.01254L12.0709 8.23672L10.8626 7.02838ZM9.15072 11.3451C8.32395 11.3451 7.65405 10.6728 7.65405 9.84266C7.65405 9.01349 8.32385 8.34026 9.15072 8.34026C9.9776 8.34026 10.6474 9.01339 10.6474 9.84266C10.6474 10.6729 9.9776 11.3451 9.15072 11.3451ZM16.3166 15.7082L15.1082 16.9173L10.8832 12.6931L12.0916 11.4839L16.3166 15.7082Z" fill="white"/>
<path fill-rule="evenodd" clip-rule="evenodd" d="M9.19534 16.34C10.047 16.34 10.8583 16.1702 11.6019 15.8683L13.6644 17.9324C12.2984 18.6961 10.7593 19.0964 9.1943 19.0952C4.11668 19.0951 0 14.9791 0 9.90246C0 4.82494 4.11668 0.708991 9.1943 0.708991C10.7438 0.707126 12.2684 1.09897 13.6249 1.84774L11.5958 3.87754C10.8531 3.57754 10.0442 3.40879 9.1943 3.40879C5.63835 3.40879 2.75678 6.3038 2.75678 9.87548C2.75678 13.4461 5.63939 16.3411 9.1943 16.3411L9.19534 16.34Z" fill="white"/>
</svg>
