<svg width="250" height="136" viewBox="0 0 250 136" fill="none" xmlns="http://www.w3.org/2000/svg">
<g clip-path="url(#clip0_5_28)">
<path d="M143.939 67.1073C143.939 26.519 168.937 1.81308 201.511 1.81308C230.297 1.81308 249.992 18.5778 249.992 42.4014C249.992 65.3425 233.327 79.4602 215.146 79.4602C204.541 79.4602 197.723 77.6955 192.421 72.4014C190.906 71.519 190.148 71.519 190.148 74.1661C190.148 82.9896 193.178 89.1661 197.723 95.3426C201.511 99.7543 209.086 103.284 215.904 103.284C223.479 103.284 229.539 101.519 235.599 97.9896C241.66 94.4602 245.447 96.2249 248.477 101.519C252.265 107.696 247.72 115.637 243.175 120.931C235.599 129.754 221.206 136.813 203.026 136.813C165.907 134.166 144.697 105.931 143.939 67.1073V67.1073ZM68.9444 94.4602C71.9745 94.4602 75.0046 96.2249 76.5196 101.519L87.1249 120.931C90.9125 127.99 94.7002 133.284 101.518 133.284C108.336 133.284 112.881 129.754 116.668 120.048C121.213 108.578 126.516 92.6955 130.304 73.2837C135.606 50.3425 137.879 37.1072 137.879 26.519C137.879 15.9307 134.849 8.87191 124.244 6.22485C109.851 1.81308 89.3975 0.930725 68.9444 0.930725C48.4913 0.930725 28.0382 1.81308 13.6453 5.34249C3.03995 7.98956 0.00985718 14.166 0.00985718 25.6366C0.00985718 37.1072 2.28242 50.3425 6.82756 72.4014C11.3727 92.6955 15.9178 106.813 20.463 119.166C24.2506 128.872 28.0382 132.401 34.8559 132.401C41.6736 132.401 45.4612 127.107 49.2488 120.048L59.8541 100.637C62.8842 97.1073 65.1568 94.4602 68.9444 94.4602V94.4602Z" fill="white" fill-opacity="0.98"/>
</g>
<defs>
<clipPath id="clip0_5_28">
<rect width="250" height="135" fill="white" transform="translate(0 0.930725)"/>
</clipPath>
</defs>
</svg>
