<svg width="2489" height="2500" viewBox="0 0 2489 2500" fill="none" xmlns="http://www.w3.org/2000/svg">
<g clip-path="url(#clip0_25_7)">
<path fill-rule="evenodd" clip-rule="evenodd" d="M2126.29 363.305C1892.33 129.15 1581.19 0.13161 1249.7 0C566.662 0 10.7573 555.692 10.484 1238.73C10.3928 1457.06 67.4577 1670.19 175.894 1858.05L0.0935059 2500L657.017 2327.74C838.012 2426.42 1041.8 2478.43 1249.2 2478.52H1249.71C1932.67 2478.52 2488.63 1922.76 2488.9 1239.72C2489.03 908.708 2360.26 597.46 2126.29 363.305V363.305ZM1249.71 2269.29H1249.29C1064.47 2269.22 883.198 2219.59 725.063 2125.77L687.45 2103.46L297.627 2205.68L401.68 1825.73L377.187 1786.77C274.086 1622.83 219.629 1433.35 219.71 1238.81C219.937 671.094 681.986 209.226 1250.12 209.226C1525.22 209.331 1783.83 316.573 1978.29 511.194C2172.75 705.815 2279.78 964.514 2279.68 1239.64C2279.44 1807.39 1817.4 2269.29 1249.71 2269.29V2269.29ZM1814.67 1498.14C1783.71 1482.65 1631.48 1407.76 1603.09 1397.43C1574.71 1387.1 1554.07 1381.94 1533.43 1412.93C1512.79 1443.92 1453.45 1513.64 1435.38 1534.3C1417.32 1554.95 1399.26 1557.54 1368.3 1542.04C1337.33 1526.55 1237.57 1493.87 1119.3 1388.41C1027.25 1306.34 965.107 1204.97 947.046 1173.98C928.985 1142.99 945.126 1126.24 960.625 1110.81C974.552 1096.94 991.587 1074.65 1007.07 1056.58C1022.55 1038.5 1027.71 1025.59 1038.03 1004.94C1048.35 984.276 1043.19 966.198 1035.45 950.705C1027.71 935.212 965.788 782.855 939.983 720.88C914.852 660.521 889.323 668.688 870.317 667.743C852.276 666.845 831.614 666.653 810.974 666.653C790.332 666.653 756.788 674.401 728.404 705.387C700.024 736.376 620.038 811.262 620.038 963.616C620.038 1115.97 730.986 1263.16 746.468 1283.82C761.948 1304.48 964.803 1617.13 1275.41 1751.21C1349.28 1783.1 1406.96 1802.14 1451.93 1816.42C1526.1 1839.97 1593.6 1836.64 1646.96 1828.68C1706.44 1819.79 1830.15 1753.79 1855.95 1681.49C1881.75 1609.18 1881.75 1547.21 1874.01 1534.3C1866.28 1521.39 1845.63 1513.64 1814.67 1498.14" fill="white"/>
</g>
<defs>
<clipPath id="clip0_25_7">
<rect width="2489" height="2500" fill="white"/>
</clipPath>
</defs>
</svg>
