<svg width="601" height="154" viewBox="0 0 601 154" fill="none" xmlns="http://www.w3.org/2000/svg">
<path d="M118.5 5.7C108 5.7 96.7 13.8 87.7 32.8L76.1 5H75.4C73.5 9.4 67.5 11.8 61.9 11.8H0.800049V13C5.70005 15.1 10 22.2 14 31.8L52 123.5H53.2L77.9 63.8L102.6 123.5H103.8L124.9 71.1C133.1 50.5 138.4 39.2 138.4 28.9C138.2 15.3 130.6 5.7 118.5 5.7ZM61.5 91.7L36.9 31.9C32.9 22.1 36.6 15.2 46.7 15.2C55.6 15.2 60 21.1 64.5 31.8L75.4 58.1L61.5 91.7ZM120.5 69.3L111.9 91.1L89.1 36.4C94.7 28.3 101.9 25.3 110.3 25.3C120.2 25.3 126.2 32.1 126.2 44.4C126.2 51.1 124.4 59.6 120.5 69.3Z" fill="white"/>
<path d="M439.6 65C439.6 52.9 427.1 44 411.3 44C387.3 44 371 64.7 371 86.5C371 110.2 389.1 124.4 407 124.4C421.4 124.4 435.3 115.7 439.6 100.4L438.6 99.5C433.7 106.7 425.3 110.7 416.8 110.7C405.7 110.7 396.6 104.3 392.3 92.9C415.3 89.3 439.6 83.1 439.6 65ZM391.3 89.4C390.4 85.8 390 82 390 78C390 58.8 398.2 48 408.2 48C416.1 48 418.4 54.7 418.4 61.8C418.4 76.6 405 86.5 391.3 89.4Z" fill="white"/>
<path d="M585.9 41.8C575.7 41.8 565.9 51.4 559.9 64.4L549.8 43.1001H548.6C546.7 50.3001 537.6 54.5 527.7 54.3V55.5C533.9 57 536.6 62.9001 540.4 70.7001L566.6 124.7L564.8 128C559.2 139.1 555.3 143.1 551.3 143.1C544 143.1 543.4 132.6 534.7 132.6C529.5 132.6 525.2 136.2 525.2 142.4C525.2 149.4 532.9 153.8 540.9 153.8C552.6 153.8 559.9 144.6 567.7 129.8L588 91.9C596.2 76.7 600.6 70.0001 600.6 58.6001C600.8 49.5001 595.4 41.8 585.9 41.8ZM584.6 90L578.1 102.6L561.4 67.4C564.6 61.7 570.2 57.1001 578.6 57.1001C586.5 57.1001 590.6 62 590.6 70C590.5 75.5 588.6 82.3 584.6 90Z" fill="white"/>
<path d="M220.9 106.7V61C220.9 50.8 214.5 44 205 44C193.6 44 179.2 54.3999 171.5 61.8999V0.199951H170.5C165.9 7.39995 154 11.9 142.6 11.6V12.8C149.1 14.6 151 19.2 151 28V106.7C151 113.4 148 118.7 142.7 120.9V122.1H180.1V120.9C174.6 117.8 171.5 113.4 171.5 107V65.7C180.2 59.3 186.9 56.2 191.8 56.2C197.3 56.2 200.4 60.1999 200.4 68.2999V107C200.4 113.4 197.6 117.6 191.8 120.9V122.1H229.2V120.9C223.9 118.7 220.9 113.4 220.9 106.7Z" fill="white"/>
<path d="M498.4 44C487.7 44 477.5 51.7999 471.9 57.8999V0.199951H471C465.7 7.39995 453.4 11.9 442.4 11.6V12.8C448.5 14.6 451.3 19.3 451.3 28V123.6H452.6L462.4 112.7C466.7 119.5 474.9 123.6 484.6 123.6C509.2 123.6 526.1 102.6 526.1 79.7C526.2 58.7 513 44 498.4 44ZM484.1 119.6C476.8 119.6 471.9 113.7 471.9 105.5V62C476.8 57.7 482.3 53.6999 488.4 53.8999C498.8 53.9999 504.7 65.7 504.9 83.6C505 103.9 496.7 119.6 484.1 119.6Z" fill="white"/>
<path d="M359.4 43.9998C351.2 43.9998 342.4 52.6998 338.2 60.9998V43.0999H337C332 50.2999 320.1 54.5998 309 54.4998V55.6998C315.1 57.4998 318 62.3998 318 70.8998V106.1C318 112.9 315 118.2 309.1 120.9V122.1H347.3V120.9C341.2 118.2 338.6 112.9 338.6 106.1V64.6999C340.8 61.8999 343.3 58.8998 346.3 58.8998C351.8 58.8998 354 65.5999 360.8 65.5999C365.5 65.5999 370.4 61.7998 370.4 55.1998C370.5 48.7998 365.3 43.9998 359.4 43.9998Z" fill="white"/>
<path d="M302.1 65C302.1 52.9 289.6 44 273.8 44C249.8 44 233.5 64.7 233.5 86.5C233.5 110.2 251.6 124.4 269.5 124.4C283.9 124.4 297.8 115.7 302.1 100.4L301.1 99.5C296.2 106.7 287.8 110.7 279.3 110.7C268.2 110.7 259.1 104.3 254.8 92.9C277.8 89.3 302.1 83.1 302.1 65ZM253.8 89.4C252.9 85.8 252.5 82 252.5 78C252.5 58.8 260.7 48 270.7 48C278.6 48 281.1 54.7 281.1 61.8C281.1 76.6 267.6 86.5 253.8 89.4Z" fill="white"/>
</svg>
